<?xml version="1.0" standalone="no"?>
<!DOCTYPE svg PUBLIC "-//W3C//DTD SVG 20010904//EN"
 "http://www.w3.org/TR/2001/REC-SVG-20010904/DTD/svg10.dtd">
<svg version="1.0" xmlns="http://www.w3.org/2000/svg"
 width="490.000000pt" height="478.000000pt" viewBox="0 0 490.000000 478.000000"
 preserveAspectRatio="xMidYMid meet">

<g transform="translate(0.000000,478.000000) scale(0.100000,-0.100000)"
fill="#000000" stroke="none">
<path d="M2180 4323 c-206 -22 -463 -112 -634 -221 -304 -194 -532 -498 -630
-838 -44 -153 -56 -242 -56 -411 0 -170 21 -304 71 -457 52 -157 167 -374 247
-462 9 -10 40 -44 67 -75 107 -121 280 -252 440 -331 101 -51 290 -115 392
-133 127 -22 362 -20 505 4 270 47 469 139 693 321 231 189 412 473 485 765
156 618 -85 1243 -620 1602 -176 119 -412 206 -630 233 -80 9 -253 11 -330 3z
m425 -437 c107 -28 223 -79 319 -141 133 -85 290 -265 368 -420 30 -59 80
-203 76 -215 -3 -9 -175 88 -508 286 -502 299 -520 309 -545 285 -6 -5 -98
-59 -205 -121 -107 -62 -280 -162 -385 -223 -368 -213 -416 -239 -422 -233
-10 10 35 141 78 229 86 175 237 337 414 443 97 58 267 118 390 137 17 3 95 4
175 2 119 -2 163 -7 245 -29z m-208 -285 c65 -39 466 -275 578 -340 50 -29
117 -68 150 -88 33 -20 106 -63 163 -97 56 -33 102 -67 102 -74 0 -8 -6 -12
-14 -9 -12 5 -196 108 -527 296 -25 14 -147 84 -272 154 l-226 129 -73 -40
c-72 -40 -127 -70 -303 -169 -139 -78 -396 -222 -547 -307 -75 -42 -139 -76
-142 -76 -3 0 -6 7 -6 15 0 8 63 52 143 99 129 77 920 535 924 536 1 0 23 -13
50 -29z m628 -721 c138 -7 349 -17 470 -23 l220 -12 -3 -75 c-4 -89 -26 -219
-54 -315 -11 -38 -21 -71 -22 -72 -1 -1 -168 7 -371 18 -670 36 -1606 37
-2146 2 l-97 -6 -17 59 c-30 104 -45 186 -51 290 l-7 102 29 6 c33 6 516 35
679 40 210 6 1121 -3 1370 -14z m-1505 -565 l0 -85 815 0 815 0 0 75 0 75 65
0 c36 0 65 -3 65 -7 0 -3 -12 -27 -27 -52 -143 -247 -396 -434 -673 -498 -208
-48 -437 -34 -621 37 -148 57 -303 162 -409 278 -69 75 -151 194 -164 240 -7
21 -5 22 63 22 l71 0 0 -85z"/>
<path d="M2305 3802 c-32 -20 -50 -30 -332 -184 -100 -54 -186 -105 -192 -112
-15 -18 -3 -46 20 -46 19 0 156 69 269 135 30 18 107 60 171 93 l115 60 60
-32 c32 -18 98 -55 145 -83 48 -27 94 -53 103 -56 9 -4 40 -21 68 -39 29 -18
70 -42 91 -53 38 -20 39 -20 53 -1 26 36 28 35 -131 125 -66 37 -177 100 -247
139 -69 40 -134 72 -145 72 -10 0 -31 -8 -48 -18z"/>
<path d="M2410 2831 c-14 -27 -13 -31 8 -31 10 0 29 11 42 25 l23 25 -31 0
c-21 0 -35 -7 -42 -19z"/>
<path d="M1288 2634 l-3 -144 123 0 122 0 0 30 0 30 -74 0 c-58 0 -75 3 -80
16 -15 40 -9 44 69 44 73 0 75 1 75 25 0 23 -3 24 -72 27 -70 3 -73 4 -73 28
0 24 2 25 78 28 77 3 77 3 77 31 l0 28 -120 0 -119 0 -3 -143z"/>
<path d="M1590 2635 l0 -145 35 0 35 0 1 108 c0 119 5 116 41 -25 20 -83 21
-83 53 -83 l33 0 22 93 c13 50 27 96 31 102 5 5 9 -35 9 -93 l0 -102 35 0 36
0 -3 143 -3 142 -52 2 c-29 1 -55 -2 -58 -7 -5 -9 -21 -66 -39 -144 -10 -40
-18 -26 -41 67 l-20 82 -58 3 -57 3 0 -146z"/>
<path d="M1986 2772 c-3 -3 -6 -68 -6 -144 l0 -138 44 0 45 0 3 53 3 52 45 3
c56 3 85 17 99 49 17 37 13 69 -13 99 -22 26 -28 28 -119 30 -53 1 -98 -1
-101 -4z m154 -73 c15 -27 -3 -49 -41 -49 -26 0 -29 3 -29 35 0 32 2 35 30 35
19 0 33 -7 40 -21z"/>
<path d="M2355 2766 c-64 -28 -90 -95 -72 -183 12 -65 59 -96 142 -97 71 -1
109 19 134 68 18 38 16 132 -4 163 -38 57 -130 80 -200 49z m110 -71 c50 -49
25 -145 -37 -145 -47 0 -68 25 -68 79 0 51 5 62 35 79 30 17 43 15 70 -13z"/>
<path d="M2630 2635 l0 -145 45 0 45 0 0 60 c0 89 24 81 80 -23 16 -29 23 -32
69 -35 l51 -3 -22 38 c-12 21 -30 48 -40 59 -19 21 -19 22 6 47 36 37 43 73
19 105 -23 31 -64 40 -180 41 l-73 1 0 -145z m175 64 c8 -25 -2 -37 -35 -39
-45 -4 -50 -1 -50 30 0 28 2 30 39 30 31 0 41 -4 46 -21z"/>
<path d="M2960 2634 l0 -144 45 0 45 0 0 143 0 143 -45 1 -45 1 0 -144z"/>
<path d="M3180 2762 c-90 -48 -95 -205 -7 -257 42 -26 133 -27 171 -2 37 25
66 75 66 117 0 49 -16 100 -37 119 -49 44 -134 54 -193 23z m120 -62 c14 -14
20 -33 20 -68 0 -60 -16 -83 -58 -84 -48 -1 -66 22 -66 83 0 42 5 55 23 70 30
24 56 24 81 -1z"/>
<path d="M1762 2178 c-18 -18 -14 -57 9 -89 20 -29 20 -59 0 -59 -16 0 -42 31
-35 41 7 13 -25 50 -37 43 -22 -13 -8 -63 26 -93 39 -34 52 -37 90 -19 31 14
34 61 5 98 -11 14 -20 31 -20 38 0 21 34 9 39 -13 4 -22 31 -46 43 -39 17 11
7 37 -26 70 -35 35 -72 44 -94 22z"/>
<path d="M2803 2161 l-22 -19 24 -87 c13 -48 26 -89 28 -92 11 -10 44 21 40
37 -6 22 41 53 67 45 11 -4 29 0 40 8 19 13 15 17 -64 70 -46 31 -85 57 -87
57 -2 -1 -14 -9 -26 -19z m87 -82 c0 -6 -7 -12 -16 -16 -18 -7 -34 12 -34 40
0 16 2 16 25 1 14 -9 25 -20 25 -25z"/>
<path d="M2706 2097 c-17 -12 -17 -16 -2 -52 9 -21 14 -40 12 -43 -3 -2 -27 9
-54 26 -46 28 -63 29 -91 6 -7 -6 74 -164 84 -164 6 0 16 4 23 9 11 7 10 16
-8 51 -12 23 -19 44 -16 47 3 3 28 -9 55 -26 42 -25 55 -29 76 -21 l25 9 -36
78 c-42 93 -45 97 -68 80z"/>
<path d="M1884 2029 c-56 -57 -66 -71 -54 -79 21 -13 38 -12 43 3 6 20 77 -18
77 -42 0 -17 35 -40 44 -29 2 1 7 44 10 95 l7 92 -29 15 -29 15 -69 -70z m73
-55 c-7 -8 -37 8 -37 19 0 6 8 19 18 30 17 19 17 19 20 -13 2 -17 1 -34 -1
-36z"/>
<path d="M2059 2024 c-5 -14 -9 -33 -9 -42 0 -9 -7 -38 -14 -64 -16 -51 -14
-58 21 -58 17 0 23 6 23 23 0 30 11 67 19 67 4 0 15 -24 26 -52 19 -56 29 -68
57 -68 12 0 21 19 34 75 19 80 18 79 82 59 8 -2 12 -26 12 -74 0 -68 1 -70 25
-70 23 0 24 3 27 73 3 70 4 72 30 75 28 3 46 30 25 37 -6 2 -60 5 -120 7
l-107 3 -6 -35 c-10 -56 -21 -70 -32 -40 -30 78 -42 98 -61 103 -17 4 -24 0
-32 -19z"/>
<path d="M2475 2020 c-17 -6 -24 -26 -38 -100 -10 -51 -17 -94 -15 -96 9 -9
48 10 53 26 7 23 62 32 80 13 16 -16 55 -17 55 -2 0 18 -94 169 -105 168 -5 0
-19 -4 -30 -9z m39 -79 c14 -27 14 -29 -4 -34 -25 -6 -30 1 -23 36 7 34 9 34
27 -2z"/>
<path d="M4600 1844 c-122 -63 -311 -121 -485 -149 -49 -8 -200 -26 -335 -40
-426 -43 -470 -49 -470 -56 0 -4 -12 -10 -27 -14 -15 -3 -35 -13 -43 -20 -8
-8 -26 -24 -40 -37 l-25 -23 38 -3 c37 -3 457 30 617 49 220 25 437 77 567
135 44 19 253 169 253 180 0 5 4 7 -50 -22z"/>
<path d="M1640 1360 c-182 -29 -792 -140 -975 -178 l-80 -16 91 -17 c185 -35
332 -141 412 -297 53 -104 67 -160 67 -272 0 -162 -59 -297 -181 -416 -56 -55
-164 -115 -249 -139 l-50 -13 40 -1 c50 -1 154 28 223 63 68 34 178 139 221
210 61 102 83 179 84 291 1 113 -16 185 -66 280 -43 82 -155 192 -234 230 -34
17 -62 32 -62 35 -1 3 81 20 182 38 563 104 813 157 780 168 -13 3 -23 13 -23
20 0 9 -12 14 -32 14 -25 0 -29 3 -18 10 20 13 15 12 -130 -10z"/>
<path d="M3639 1333 c-25 -4 -28 -9 -44 -101 -10 -53 -19 -100 -22 -105 -7
-12 -83 35 -105 66 -19 27 -20 49 -3 90 11 27 -31 22 -60 -8 -50 -49 -17 -117
81 -165 34 -16 67 -30 73 -30 8 0 9 -13 5 -40 -6 -39 -6 -40 24 -40 28 0 32 4
37 38 13 73 46 257 51 280 2 12 1 21 -3 21 -5 -1 -20 -4 -34 -6z"/>
<path d="M3123 1256 c-40 -7 -76 -15 -79 -19 -4 -4 0 -62 10 -130 28 -190 23
-177 63 -177 33 0 34 1 29 33 -3 17 -13 73 -21 122 -24 145 -25 141 46 149 35
3 69 2 80 -4 39 -21 15 -88 -51 -140 -22 -17 -40 -40 -40 -51 0 -20 24 -26 35
-9 11 17 24 11 69 -30 43 -40 76 -49 106 -30 11 7 2 20 -44 61 -46 42 -55 55
-44 64 57 43 75 118 38 155 -23 23 -81 25 -197 6z"/>
<path d="M3836 1202 c-58 -48 -65 -57 -50 -64 18 -8 392 -105 664 -174 l135
-34 120 32 c66 17 130 33 143 35 12 3 22 9 22 12 0 4 -48 20 -107 34 -158 40
-601 153 -730 187 -62 17 -116 30 -120 29 -4 0 -39 -26 -77 -57z"/>
<path d="M2859 1215 c-104 -19 -98 -9 -82 -122 7 -54 16 -120 20 -146 3 -27
12 -51 20 -54 12 -5 149 11 201 24 12 3 22 12 22 20 0 12 -8 14 -32 9 -18 -3
-56 -8 -85 -12 l-52 -6 -6 33 c-16 92 -16 93 48 102 35 6 57 14 57 22 0 10 -9
11 -37 4 -71 -16 -81 -13 -93 32 -6 23 -9 47 -7 54 3 7 29 15 59 19 73 10 98
17 98 27 0 12 -48 9 -131 -6z"/>
<path d="M2646 1171 c-3 -5 -1 -23 5 -40 16 -46 7 -128 -23 -191 l-25 -55 -64
128 c-59 117 -66 127 -91 127 -17 0 -28 -5 -28 -14 0 -8 29 -75 64 -150 64
-135 65 -136 98 -135 39 1 71 34 118 124 34 64 39 124 16 180 -12 27 -21 35
-40 35 -14 0 -27 -4 -30 -9z"/>
<path d="M2318 1118 c-9 -5 -8 -39 6 -136 23 -174 23 -172 57 -172 36 0 37 8
7 186 -19 116 -24 132 -40 131 -10 -1 -24 -5 -30 -9z"/>
<path d="M2074 1092 c-9 -5 -6 -46 10 -154 12 -81 25 -150 28 -154 4 -4 50 -1
103 6 69 10 95 17 95 28 0 11 -13 13 -69 7 l-69 -7 -10 64 c-6 34 -16 98 -23
141 -11 67 -16 77 -33 77 -12 0 -26 -4 -32 -8z"/>
<path d="M1870 1066 l-75 -12 1 -44 c1 -49 32 -262 39 -269 5 -4 171 17 210
27 15 5 22 11 17 19 -6 9 -26 9 -85 1 -42 -6 -79 -9 -81 -7 -2 2 -7 32 -11 65
l-7 61 61 7 c34 4 61 12 61 18 0 7 -21 8 -64 4 l-64 -7 -6 45 c-4 25 -5 50 -2
55 3 5 32 12 63 15 72 9 93 15 93 27 0 11 -52 10 -150 -5z"/>
<path d="M1490 1003 c-19 -3 -38 -8 -42 -11 -4 -4 2 -66 13 -137 30 -190 25
-175 60 -175 l31 0 -4 53 c-3 28 -11 92 -19 140 -15 100 -12 107 51 107 69 0
110 -53 110 -142 0 -66 -18 -94 -70 -108 -25 -7 -40 -17 -40 -26 0 -13 7 -15
37 -9 51 9 86 29 117 65 22 27 26 41 26 93 0 69 -18 106 -66 138 -29 19 -106
23 -204 12z"/>
<path d="M456 964 c-18 -19 -26 -37 -26 -63 0 -37 23 -81 41 -81 6 0 17 -7 25
-15 24 -24 77 -19 103 9 21 22 23 31 17 80 -6 43 -13 60 -33 76 -38 29 -94 27
-127 -6z"/>
<path d="M462 773 c-53 -21 -55 -211 -4 -291 14 -22 21 -23 104 -21 l90 2 52
-70 53 -71 -55 -11 c-87 -17 -96 -15 -115 24 -9 20 -17 51 -17 71 0 21 -6 37
-14 40 -12 5 -219 -33 -288 -52 -20 -6 -25 -49 -7 -59 6 -4 10 -36 9 -73 -1
-37 -1 -72 -1 -78 1 -6 14 -9 31 -6 26 4 29 7 23 30 -4 17 -2 23 6 18 6 -4 11
-14 11 -22 0 -9 13 -29 29 -45 32 -32 83 -39 124 -18 76 39 76 149 0 188 -55
28 -135 -4 -152 -61 -5 -18 -10 -25 -10 -16 -3 53 51 98 119 98 34 0 48 -6 76
-34 19 -19 34 -43 34 -55 0 -26 11 -26 133 -1 150 30 147 29 147 57 0 22 -3
24 -32 18 -26 -5 -29 -4 -15 5 28 18 20 59 -30 134 -25 39 -51 74 -57 78 -6 4
-39 8 -72 8 -65 0 -74 7 -74 52 0 15 4 18 18 13 9 -3 31 -9 47 -12 17 -3 35
-10 42 -15 7 -5 22 -7 33 -3 16 5 26 1 38 -17 20 -28 72 -113 91 -150 l14 -27
29 24 c44 37 94 43 140 16 28 -16 38 -18 38 -8 0 25 -39 50 -91 58 -35 6 -56
15 -69 32 -11 14 -40 34 -64 46 -26 12 -52 33 -60 49 -23 45 -44 56 -105 57
-64 1 -99 19 -108 55 -3 14 -10 31 -16 38 -9 12 -50 15 -75 5z m11 -524 c15
-24 1 -49 -26 -49 -33 0 -47 19 -36 48 10 27 46 27 62 1z"/>
<path d="M251 674 c-63 -13 -118 -29 -122 -35 -3 -6 -1 -34 6 -63 7 -28 19
-81 26 -118 7 -39 18 -68 24 -68 17 0 239 50 244 55 7 8 -42 235 -53 244 -7 5
-56 -1 -125 -15z"/>
<path d="M792 688 c-33 -33 4 -107 47 -93 16 5 21 15 21 44 0 40 -14 61 -40
61 -9 0 -21 -5 -28 -12z"/>
<path d="M910 439 c-14 -5 -34 -22 -43 -38 -54 -92 31 -197 127 -157 43 18 66
51 66 96 0 42 -20 75 -60 95 -33 17 -53 18 -90 4z m68 -71 c17 -17 15 -43 -4
-59 -31 -26 -70 25 -44 56 15 18 32 19 48 3z"/>
</g>
</svg>
