<?xml version="1.0" standalone="no"?>
<!DOCTYPE svg PUBLIC "-//W3C//DTD SVG 20010904//EN"
 "http://www.w3.org/TR/2001/REC-SVG-20010904/DTD/svg10.dtd">
<svg version="1.0" xmlns="http://www.w3.org/2000/svg"
 width="512.000000pt" height="512.000000pt" viewBox="0 0 512.000000 512.000000"
 preserveAspectRatio="xMidYMid meet">

<g transform="translate(0.000000,512.000000) scale(0.100000,-0.100000)"
fill="#000000" stroke="none">
<path d="M1989 5105 c-633 -87 -1144 -547 -1294 -1167 -109 -449 -7 -931 274
-1295 128 -166 175 -204 239 -188 17 4 121 100 294 272 238 237 267 264 272
242 12 -63 130 -2310 135 -2592 l6 -319 33 -29 32 -29 1090 0 1090 0 32 29 33
29 6 324 c4 202 41 931 99 1952 74 1328 89 1634 79 1658 -21 52 -49 58 -254
58 -102 0 -185 1 -185 3 7 79 59 507 63 514 4 6 103 68 221 139 l215 128 -26
46 c-14 25 -37 62 -50 82 l-23 37 -248 -149 c-137 -82 -255 -157 -262 -165
-11 -14 -78 -527 -80 -612 l0 -23 -477 0 -477 0 241 243 c155 155 244 252 248
270 12 45 -3 77 -58 129 -343 324 -809 475 -1268 413z m336 -195 c244 -23 472
-108 660 -245 112 -83 109 -66 31 -144 l-68 -69 -62 47 c-128 97 -316 177
-487 207 -136 23 -351 15 -480 -19 -362 -95 -653 -350 -788 -689 -63 -156 -76
-234 -75 -438 0 -168 3 -194 27 -285 32 -120 118 -298 185 -388 l50 -65 -69
-68 -68 -67 -21 24 c-76 90 -185 282 -228 404 -127 363 -95 768 88 1100 215
389 611 652 1047 694 127 12 137 12 258 1z m-215 -626 l0 -234 -128 0 -127 0
-129 129 c-112 112 -128 132 -116 145 23 29 153 104 235 137 78 31 243 71 258
62 4 -2 7 -110 7 -239z m350 211 c84 -22 214 -82 290 -136 l61 -43 -133 -133
-133 -133 -122 0 -123 0 0 239 0 238 48 -8 c26 -4 76 -15 112 -24z m-866 -454
l129 -129 6 -118 c4 -66 6 -122 4 -126 -2 -5 -112 -8 -243 -8 -131 0 -241 3
-243 8 -9 14 31 179 62 257 42 103 128 245 149 245 4 0 65 -58 136 -129z
m2156 -205 c0 -41 -91 -840 -96 -846 -3 -3 -49 -5 -102 -4 -170 1 -271 44
-437 187 -102 88 -206 146 -321 179 -95 27 -294 32 -384 9 -145 -37 -266 -106
-377 -214 -65 -62 -73 -68 -73 -46 0 13 -9 179 -20 369 -11 190 -20 355 -20
368 l0 22 915 0 915 0 0 -24z m467 -78 c-4 -57 -9 -164 -13 -238 l-6 -135
-117 -118 c-105 -108 -207 -195 -215 -186 -2 2 16 175 40 384 24 209 43 383
43 388 1 4 62 7 137 7 l137 0 -6 -102z m-2464 -390 l7 -103 -153 -153 -153
-153 -43 60 c-78 112 -138 262 -160 404 l-8 47 252 0 252 0 6 -102z m952 -193
c107 -23 198 -72 309 -168 162 -139 307 -202 491 -214 113 -7 213 8 324 50
105 40 183 90 280 182 l73 70 -6 -85 c-4 -47 -33 -573 -66 -1170 -33 -597 -62
-1124 -66 -1173 l-6 -87 -968 0 -967 0 -6 83 c-3 45 -32 549 -63 1120 l-57
1038 99 100 c164 166 257 226 394 254 87 18 151 18 235 0z m1325 -2885 l0
-100 -960 0 -960 0 0 100 0 100 960 0 960 0 0 -100z"/>
<path d="M2400 2605 l0 -95 95 0 95 0 0 95 0 95 -95 0 -95 0 0 -95z"/>
<path d="M3650 2315 l0 -95 95 0 95 0 0 95 0 95 -95 0 -95 0 0 -95z"/>
<path d="M2970 1835 l0 -95 100 0 100 0 0 95 0 95 -100 0 -100 0 0 -95z"/>
<path d="M2490 1155 l0 -95 95 0 95 0 0 95 0 95 -95 0 -95 0 0 -95z"/>
<path d="M3552 1063 l3 -98 95 0 95 0 0 95 0 95 -98 3 -98 3 3 -98z"/>
</g>
</svg>
