<?xml version="1.0" standalone="no"?>
<!DOCTYPE svg PUBLIC "-//W3C//DTD SVG 20010904//EN"
 "http://www.w3.org/TR/2001/REC-SVG-20010904/DTD/svg10.dtd">
<svg version="1.0" xmlns="http://www.w3.org/2000/svg"
 width="512.000000pt" height="512.000000pt" viewBox="0 0 512.000000 512.000000"
 preserveAspectRatio="xMidYMid meet">

<g transform="translate(0.000000,512.000000) scale(0.100000,-0.100000)"
fill="#000000" stroke="none">
<path d="M1955 4773 c-437 -10 -939 -69 -1262 -148 -401 -99 -643 -235 -683
-386 -7 -25 -9 -333 -8 -891 3 -794 4 -855 21 -885 89 -163 371 -292 839 -383
l167 -33 548 195 548 194 5 -205 c3 -137 9 -213 17 -228 21 -36 71 -46 211
-38 108 5 124 4 110 -8 -9 -7 -156 -89 -326 -181 -170 -92 -318 -176 -328
-187 -17 -19 -19 -43 -22 -248 -2 -124 0 -241 3 -259 7 -39 40 -72 72 -72 31
0 79 -25 87 -45 22 -59 -10 -107 -84 -124 -77 -17 -83 -37 -78 -278 3 -164 4
-174 26 -195 l23 -23 1615 0 1616 0 24 28 24 28 0 607 c0 659 -4 718 -56 882
-30 98 -99 239 -157 325 -90 132 -255 281 -399 360 l-68 37 0 312 c0 203 -4
324 -11 345 -12 33 -52 61 -89 61 -11 0 -32 11 -45 25 -48 47 -23 127 43 140
44 9 76 29 89 55 10 19 13 103 11 355 -3 381 -1 369 -106 466 -233 217 -905
367 -1783 399 -249 9 -325 9 -594 3z m635 -173 c626 -30 1098 -109 1441 -241
79 -31 182 -92 210 -125 25 -30 28 -48 14 -81 -44 -103 -401 -235 -838 -308
-287 -47 -551 -72 -889 -82 l-228 -6 0 230 0 230 -25 23 c-15 14 -36 23 -55
22 -17 0 -291 -93 -610 -206 -319 -113 -592 -206 -606 -206 -48 0 -350 70
-470 109 -203 66 -345 150 -360 212 -8 36 39 89 120 134 380 212 1364 339
2296 295z m-460 -783 l0 -244 -55 5 c-73 6 -115 -3 -164 -36 -151 -101 -156
-316 -10 -422 51 -37 136 -56 190 -42 l39 10 -2 -235 -3 -236 -485 -172 c-267
-95 -495 -175 -507 -179 l-23 -7 0 719 0 719 263 93 c144 52 372 133 507 181
135 48 246 88 248 88 1 1 2 -108 2 -242z m-1710 -1 c88 -32 344 -99 448 -117
l72 -12 0 -724 0 -725 -42 7 c-79 13 -282 65 -378 96 -126 42 -250 102 -302
149 l-43 38 -3 701 -2 701 87 -44 c49 -24 122 -56 163 -70z m3850 -24 l0 -137
-45 -24 c-79 -42 -125 -122 -125 -218 0 -98 52 -183 141 -229 l29 -15 0 -245
c0 -215 -2 -245 -15 -240 -48 18 -193 39 -275 40 l-95 1 -520 -284 -520 -285
-120 -7 c-66 -4 -187 -8 -270 -9 l-150 -2 -3 720 -2 720 22 6 c13 3 75 6 138
6 219 0 607 32 875 71 377 56 735 156 887 249 18 11 36 20 41 20 4 0 7 -62 7
-138z m-2165 -407 c63 -62 -2 -162 -86 -133 -34 12 -63 64 -52 95 22 64 93 84
138 38z m2045 -851 c354 -80 648 -355 754 -704 14 -47 28 -113 32 -147 l7 -63
-1364 0 c-1166 1 -1360 3 -1339 15 14 7 403 219 865 470 l840 456 70 -6 c39
-4 99 -13 135 -21z m800 -1554 l0 -470 -1495 0 -1495 0 0 83 0 83 52 34 c32
22 64 54 83 84 27 44 30 58 30 131 0 73 -3 87 -30 131 -19 30 -51 62 -83 84
l-52 34 0 138 0 138 1495 0 1495 0 0 -470z"/>
<path d="M1280 3415 l0 -85 85 0 85 0 0 85 0 85 -85 0 -85 0 0 -85z"/>
<path d="M1455 3058 c-112 -42 -185 -157 -172 -270 10 -83 64 -159 142 -201
56 -30 164 -30 221 0 53 28 96 71 120 120 25 51 26 174 1 220 -23 42 -79 98
-120 119 -39 21 -151 28 -192 12z m139 -184 c35 -36 34 -77 -3 -115 -18 -17
-40 -29 -56 -29 -35 0 -85 50 -85 85 0 16 12 38 29 56 38 37 79 38 115 3z"/>
<path d="M2476 1264 c-180 -66 -227 -294 -89 -426 141 -135 386 -56 422 136
36 193 -151 357 -333 290z m123 -169 c73 -37 43 -155 -39 -155 -85 0 -110 117
-35 158 27 15 41 15 74 -3z"/>
<path d="M3240 1195 l0 -85 85 0 85 0 0 85 0 85 -85 0 -85 0 0 -85z"/>
<path d="M4610 1195 l0 -85 85 0 85 0 0 85 0 85 -85 0 -85 0 0 -85z"/>
<path d="M3812 1164 c-162 -80 -189 -294 -54 -416 167 -150 440 -13 419 210
-8 97 -58 169 -142 208 -71 33 -154 33 -223 -2z m173 -169 c53 -52 15 -137
-60 -137 -30 0 -45 6 -62 27 -27 30 -29 55 -8 95 17 32 27 38 73 39 22 1 41
-7 57 -24z"/>
<path d="M2990 765 l0 -85 85 0 85 0 0 85 0 85 -85 0 -85 0 0 -85z"/>
<path d="M4440 765 l0 -85 85 0 85 0 0 85 0 85 -85 0 -85 0 0 -85z"/>
</g>
</svg>
