<?xml version="1.0" standalone="no"?>
<!DOCTYPE svg PUBLIC "-//W3C//DTD SVG 20010904//EN"
 "http://www.w3.org/TR/2001/REC-SVG-20010904/DTD/svg10.dtd">
<svg version="1.0" xmlns="http://www.w3.org/2000/svg"
 width="500.000000pt" height="500.000000pt" viewBox="0 0 500.000000 500.000000"
 preserveAspectRatio="xMidYMid meet">

<g transform="translate(0.000000,500.000000) scale(0.100000,-0.100000)"
fill="#000000" stroke="none">
<path d="M0 2500 l0 -2500 2500 0 2500 0 0 2500 0 2500 -2500 0 -2500 0 0
-2500z m2433 1683 c-7 -2 -19 -2 -25 0 -7 3 -2 5 12 5 14 0 19 -2 13 -5z m333
-337 c413 -91 755 -346 943 -705 48 -94 128 -308 117 -318 -2 -3 -298 167
-657 378 l-652 383 -46 -26 c-25 -14 -329 -190 -676 -391 -346 -201 -631 -364
-633 -362 -9 9 85 261 125 335 97 182 254 361 421 480 147 105 371 199 547
229 33 6 71 13 85 15 55 10 358 -3 426 -18z m210 -621 c241 -142 535 -315 653
-384 118 -69 219 -134 225 -143 21 -35 -5 -29 -91 20 -728 414 -1184 672
-1211 686 l-34 17 -116 -64 c-121 -66 -1172 -654 -1230 -688 l-32 -18 0 23 c0
20 49 52 368 236 202 117 435 253 517 301 412 240 481 278 496 275 9 -2 214
-119 455 -261z m-2316 -665 c0 -36 -2 -39 -32 -44 -81 -12 -128 -15 -128 -8 0
23 110 91 148 92 7 0 12 -14 12 -40z m3746 -11 c72 -34 84 -55 27 -45 -21 3
-53 6 -70 6 -31 0 -33 2 -33 35 0 19 3 35 6 35 3 0 35 -14 70 -31z m-1596 1
c555 -15 1591 -63 1657 -78 l31 -7 -34 -115 c-66 -224 -75 -266 -81 -369 l-6
-103 -81 6 c-45 3 -173 10 -286 16 -113 5 -243 12 -290 15 -567 35 -1653 53
-2130 36 -444 -16 -922 -46 -1052 -67 l-38 -6 0 44 c0 23 7 90 15 148 18 132
18 256 1 338 -9 46 -10 65 -2 67 13 5 311 30 506 44 522 38 1134 48 1790 31z
m-1358 -742 l3 -113 1045 0 1045 0 3 101 3 101 82 -5 c45 -2 83 -6 85 -7 6 -5
-99 -168 -148 -230 -65 -82 -200 -209 -285 -270 -91 -64 -258 -149 -356 -180
-169 -53 -279 -68 -464 -62 -116 4 -199 12 -260 25 -368 82 -684 311 -885 643
-27 45 -50 86 -50 90 0 10 39 16 117 18 l62 1 3 -112z m353 -818 c3 -6 -1 -7
-9 -4 -18 7 -21 14 -7 14 6 0 13 -4 16 -10z m962 -136 c-3 -3 -12 -4 -19 -1
-8 3 -5 6 6 6 11 1 17 -2 13 -5z"/>
<path d="M2185 3565 c-181 -101 -347 -193 -367 -204 -31 -18 -38 -27 -38 -52
0 -65 9 -61 505 209 126 69 235 125 241 125 6 0 151 -79 323 -176 171 -97 315
-177 320 -177 14 0 41 36 41 56 0 15 -31 37 -122 88 -68 38 -221 125 -340 193
-119 67 -220 123 -225 122 -4 -1 -156 -83 -338 -184z"/>
<path d="M2597 2471 c-9 -16 -17 -33 -17 -39 0 -20 38 -6 81 30 l44 38 -45 0
c-40 0 -48 -4 -63 -29z"/>
<path d="M1150 2215 l1 -184 160 -3 159 -3 0 43 0 42 -100 0 -100 0 0 40 0 40
90 0 90 0 0 35 0 34 -87 -2 -88 -2 -3 33 -3 32 100 0 101 0 0 40 0 40 -160 0
-160 0 0 -185z"/>
<path d="M1540 2215 l0 -185 45 0 45 0 0 138 c1 160 7 158 49 -15 l28 -118 45
-3 45 -3 33 130 c18 72 35 129 39 127 4 -3 6 -61 4 -130 l-3 -126 50 0 50 0 0
185 0 185 -78 0 -78 0 -23 -97 c-13 -54 -27 -105 -32 -113 -9 -18 -11 -15 -34
80 -9 36 -21 80 -26 98 l-11 32 -74 0 -74 0 0 -185z"/>
<path d="M2048 2215 l-3 -185 57 0 57 0 3 68 3 67 74 6 c64 5 77 9 97 32 32
37 39 85 20 131 -22 53 -61 66 -195 66 l-110 0 -3 -185z m175 106 c30 -12 40
-36 27 -62 -8 -14 -21 -19 -50 -19 -40 0 -40 0 -40 38 0 54 12 62 63 43z"/>
<path d="M2510 2381 c-98 -52 -122 -215 -43 -302 42 -46 93 -63 174 -57 72 5
122 37 150 96 18 36 21 56 17 113 -6 79 -37 131 -94 155 -49 21 -162 18 -204
-5z m165 -93 c24 -28 27 -38 23 -87 -4 -44 -10 -59 -33 -79 -33 -28 -77 -25
-110 9 -31 31 -28 128 4 163 36 38 81 35 116 -6z"/>
<path d="M2880 2215 l0 -185 61 0 60 0 -2 73 c-2 59 1 73 13 75 18 3 55 -41
87 -105 l21 -41 65 -4 c36 -1 65 -2 65 0 0 17 -65 125 -85 140 -29 23 -32 32
-10 32 30 0 65 50 65 92 0 89 -38 108 -215 108 l-125 0 0 -185z m197 109 c28
-8 40 -41 22 -60 -8 -7 -33 -16 -56 -20 l-43 -7 0 47 c0 44 1 46 28 46 15 0
37 -3 49 -6z"/>
<path d="M3300 2215 l0 -185 58 0 57 0 1 185 2 185 -59 0 -59 0 0 -185z"/>
<path d="M3575 2376 c-49 -30 -74 -71 -82 -133 -16 -140 75 -233 215 -220 78
7 116 28 148 82 23 40 26 54 22 120 -4 79 -18 109 -72 149 -21 16 -45 22 -109
24 -73 3 -87 0 -122 -22z m150 -62 c25 -10 45 -58 45 -109 0 -38 -5 -52 -30
-77 -26 -25 -36 -29 -62 -24 -43 8 -56 22 -68 67 -26 95 37 173 115 143z"/>
<path d="M1760 1630 c-27 -27 -23 -62 16 -120 24 -36 25 -43 13 -55 -22 -22
-63 8 -56 41 3 18 -3 30 -23 44 -25 18 -29 18 -34 4 -19 -50 1 -98 58 -133 44
-28 87 -27 114 2 30 32 28 66 -8 115 -32 45 -36 57 -20 67 16 10 40 -14 40
-39 1 -29 49 -64 61 -45 16 26 9 50 -28 90 -49 51 -100 62 -133 29z"/>
<path d="M3098 1607 l-27 -22 29 -110 c40 -149 35 -140 69 -116 20 15 27 27
24 43 -5 32 58 74 85 57 15 -9 24 -8 45 6 15 9 27 20 27 24 0 8 -203 141 -215
141 -6 0 -22 -10 -37 -23z m109 -103 c2 -5 -6 -15 -17 -22 -22 -13 -24 -11
-45 58 l-8 25 34 -26 c18 -14 34 -30 36 -35z"/>
<path d="M2975 1528 c-11 -6 -21 -12 -23 -13 -1 -1 9 -27 23 -58 13 -32 21
-57 17 -57 -4 0 -33 16 -66 36 -45 27 -65 34 -87 29 -16 -4 -32 -11 -35 -17
-5 -8 64 -169 93 -217 3 -5 63 20 63 26 0 2 -12 26 -26 54 -14 28 -23 53 -20
56 3 3 33 -11 67 -31 61 -36 83 -40 117 -17 11 6 3 31 -36 115 -28 58 -54 106
-59 106 -4 0 -17 -6 -28 -12z"/>
<path d="M1920 1444 c-50 -48 -90 -90 -90 -94 0 -4 14 -13 31 -21 28 -11 33
-10 44 4 11 16 15 16 53 -1 34 -14 42 -22 42 -43 0 -20 7 -30 30 -39 17 -7 32
-11 34 -9 2 2 7 60 11 129 l7 125 -36 18 -37 17 -89 -86z m95 -43 c-6 -38 -8
-40 -28 -30 -12 7 -24 13 -26 15 -3 3 8 18 24 34 16 16 30 28 33 26 2 -3 1
-23 -3 -45z"/>
<path d="M2142 1423 c-48 -194 -48 -198 -3 -205 23 -3 26 2 37 55 6 32 14 60
17 63 6 6 25 -34 46 -99 12 -36 40 -57 75 -57 9 0 22 38 37 106 19 85 25 103
35 90 6 -9 25 -16 43 -16 l31 0 0 -95 0 -95 34 0 34 0 7 95 7 95 39 0 c35 0
39 3 39 25 0 25 -1 25 -97 26 -127 2 -163 5 -189 13 -20 6 -23 1 -34 -59 -7
-36 -15 -65 -19 -65 -3 0 -17 29 -30 65 -26 75 -43 95 -76 95 -20 0 -26 -7
-33 -37z"/>
<path d="M2686 1431 c-33 -7 -34 -9 -64 -164 l-19 -99 21 6 c12 3 29 6 38 6 9
0 18 9 20 22 2 18 12 24 48 31 24 5 46 5 47 1 9 -25 21 -31 51 -27 19 3 32 11
30 17 -7 27 -124 216 -133 215 -5 -1 -23 -4 -39 -8z m58 -143 c-3 -5 -16 -8
-30 -8 -26 0 -28 8 -18 59 l7 32 22 -38 c13 -21 21 -41 19 -45z"/>
</g>
</svg>
